<svg xmlns="http://www.w3.org/2000/svg" width="16" height="16" version="1.1"><path fill="#474747" d="m7 15c-0.94281 0-2-1.0572-2-2v-6c-2.1e-5 -0.94281 1.0572-2 2-2h6c0.94281 0 2 1.0572 2 2v6c2.1e-5 0.94281-1.0572 2-2 2zm5-3h1v-1c0-0.31-0.09025-0.552-0.28125-0.75l-2.7188-2.6582-2.7188 2.6563c-0.19 0.198-0.28125 0.44-0.28125 0.75v1h1c0.257 0 0.52775-0.1295 0.71875-0.3125l1.2812-1.2793 1.2812 1.2793c0.19 0.183 0.46175 0.31445 0.71875 0.31445z"/><path fill="#474747" d="m9 1c0.94281 0 2 1.0572 2 2v1h-2v-1h-6v6h1v2h-1c-0.94281 0-2-1.0572-2-2v-6c-2.1e-5 -0.94281 1.0572-2 2-2z" opacity=".5"/></svg>