<?xml version="1.0" encoding="UTF-8" standalone="no"?>
<svg
   xmlns:dc="http://purl.org/dc/elements/1.1/"
   xmlns:cc="http://creativecommons.org/ns#"
   xmlns:rdf="http://www.w3.org/1999/02/22-rdf-syntax-ns#"
   xmlns:svg="http://www.w3.org/2000/svg"
   xmlns="http://www.w3.org/2000/svg"
   xmlns:sodipodi="http://sodipodi.sourceforge.net/DTD/sodipodi-0.dtd"
   xmlns:inkscape="http://www.inkscape.org/namespaces/inkscape"
   width="192"
   height="128"
   id="svg11300"
   sodipodi:version="0.32"
   inkscape:version="1.0beta2 (2b71d25d45, 2019-12-03)"
   sodipodi:docname="standard-gamepad.svg"
   inkscape:output_extension="org.inkscape.output.svg.inkscape"
   version="1.0"
   style="display:inline;enable-background:new">
  <metadata
     id="metadata1207">
    <rdf:RDF>
      <cc:Work
         rdf:about="">
        <dc:title>Standard Gamepad</dc:title>
        <cc:license
           rdf:resource="https://www.gnu.org/licenses/gpl-3.0.en.html" />
        <dc:creator>
          <cc:Agent>
            <dc:title>Adrien Plazas</dc:title>
          </cc:Agent>
        </dc:creator>
        <dc:format>image/svg+xml</dc:format>
        <dc:type
           rdf:resource="http://purl.org/dc/dcmitype/StillImage" />
      </cc:Work>
    </rdf:RDF>
  </metadata>
  <defs
     id="defs2" />
  <sodipodi:namedview
     stroke="#ef2929"
     fill="#f57900"
     id="base"
     pagecolor="#ffffff"
     bordercolor="#666666"
     borderopacity="0.25490196"
     inkscape:pageopacity="0"
     inkscape:pageshadow="2"
     inkscape:zoom="5.2658478"
     inkscape:cx="91.370795"
     inkscape:cy="79.826453"
     inkscape:current-layer="svg11300"
     showgrid="true"
     inkscape:grid-bbox="true"
     inkscape:document-units="px"
     inkscape:showpageshadow="false"
     inkscape:window-width="1920"
     inkscape:window-height="1016"
     inkscape:window-x="0"
     inkscape:window-y="0"
     width="400px"
     height="300px"
     inkscape:snap-nodes="false"
     inkscape:snap-bbox="true"
     objecttolerance="7"
     gridtolerance="10000"
     guidetolerance="13"
     inkscape:snap-to-guides="false"
     inkscape:bbox-nodes="true"
     inkscape:window-maximized="1"
     showguides="false"
     inkscape:guide-bbox="true"
     fit-margin-top="0"
     fit-margin-left="0"
     fit-margin-right="0"
     fit-margin-bottom="0"
     showborder="true"
     inkscape:document-rotation="0"
     inkscape:snap-bbox-midpoints="true"
     inkscape:snap-object-midpoints="true" />
  <circle
     id="south"
     style="display:inline;fill:#000000;fill-opacity:1;fill-rule:evenodd;stroke:none;stroke-width:0.5;enable-background:new"
     cx="164"
     cy="82"
     r="8" />
  <circle
     id="east"
     style="display:inline;fill:#000000;fill-opacity:1;fill-rule:evenodd;stroke:none;stroke-width:0.5;enable-background:new"
     cx="181"
     cy="65"
     r="8" />
  <circle
     cy="65"
     cx="147"
     style="display:inline;fill:#000000;fill-opacity:1;fill-rule:evenodd;stroke:none;stroke-width:0.49912116;enable-background:new"
     id="west"
     r="8" />
  <circle
     r="8"
     cy="48"
     cx="164"
     style="display:inline;fill:#000000;fill-opacity:1;fill-rule:evenodd;stroke:none;stroke-width:0.5;enable-background:new"
     id="north" />
  <path
     style="display:inline;fill:#000000;fill-opacity:1;fill-rule:evenodd;stroke:none;stroke-width:0.5px;stroke-linecap:butt;stroke-linejoin:miter;stroke-opacity:1;enable-background:new"
     d="m 123.50003,66.25 c 0,3.250005 -5.75001,3.75 -9.00001,3.75 h -1.5 c -0.7071,0 -1.5,-0.792895 -1.5,-1.5 v -5 c 0,-0.707105 0.7929,-1.5 1.5,-1.5 h 1.5 c 3.25,0 9.00001,0.5 9.00001,3.75 z"
     id="start"
     inkscape:connector-curvature="0"
     sodipodi:nodetypes="sssssssss" />
  <path
     sodipodi:nodetypes="sssssssss"
     inkscape:connector-curvature="0"
     id="back"
     d="m 68.500003,66.25 c 0,3.250005 5.75,3.75 9,3.75 h 1.5 c 0.707105,0 1.5,-0.792895 1.5,-1.5 v -5 c 0,-0.707105 -0.792895,-1.5 -1.5,-1.5 h -1.5 c -3.25,0 -9,0.5 -9,3.75 z"
     style="display:inline;fill:#000000;fill-opacity:1;fill-rule:evenodd;stroke:none;stroke-width:0.5px;stroke-linecap:butt;stroke-linejoin:miter;stroke-opacity:1;enable-background:new" />
  <circle
     r="12"
     cy="65.999802"
     cx="95.999977"
     id="guide"
     style="display:inline;fill:#000000;fill-opacity:1;fill-rule:evenodd;stroke:none;stroke-width:0.52173913;enable-background:new" />
  <path
     style="fill:#000000;fill-opacity:1;fill-rule:evenodd;stroke:none;stroke-width:1px;stroke-linecap:butt;stroke-linejoin:miter;stroke-opacity:1"
     d="m 148,23 c 0,-0.471404 0.5286,-1 1,-1 h 30 c 0.4714,0 1,0.528596 1,1 v 6 c 0,0.471404 -0.5286,1 -1,1 h -30 c -0.4714,0 -1,-0.528596 -1,-1 z"
     id="rightshoulder"
     inkscape:connector-curvature="0"
     sodipodi:nodetypes="sssssssss" />
  <path
     sodipodi:nodetypes="ssssssssss"
     inkscape:connector-curvature="0"
     id="righttrigger"
     d="m 148,13 c 0,-0.745356 0.28858,-1.777679 1,-2 4.86691,-1.52091 9.90098,-3 15,-3 5.09902,0 10.13309,1.47909 15,3 0.71143,0.222321 1,1.254644 1,2 v 6 c 0,0.471404 -0.5286,1 -1,1 h -30 c -0.4714,0 -1,-0.528596 -1,-1 z"
     style="fill:#000000;fill-opacity:1;fill-rule:evenodd;stroke:none;stroke-width:1px;stroke-linecap:butt;stroke-linejoin:miter;stroke-opacity:1" />
  <path
     sodipodi:nodetypes="sssssssss"
     inkscape:connector-curvature="0"
     id="leftshoulder"
     d="m 12.000001,23 c 0,-0.471404 0.528595,-1 1,-1 h 29.999996 c 0.471405,0 1,0.528596 1,1 v 6 c 0,0.471404 -0.528595,1 -1,1 H 13.000001 c -0.471405,0 -1,-0.528596 -1,-1 z"
     style="fill:#000000;fill-opacity:1;fill-rule:evenodd;stroke:none;stroke-width:1px;stroke-linecap:butt;stroke-linejoin:miter;stroke-opacity:1" />
  <path
     style="fill:#000000;fill-opacity:1;fill-rule:evenodd;stroke:none;stroke-width:1px;stroke-linecap:butt;stroke-linejoin:miter;stroke-opacity:1"
     d="m 12.000001,13 c 0,-0.745356 0.288575,-1.777679 1,-2 4.86691,-1.52091 9.90098,-3 14.999995,-3 5.09902,0 10.133091,1.47909 15.000001,3 0.71143,0.222321 1,1.254644 1,2 v 6 c 0,0.471404 -0.528595,1 -1,1 H 13.000001 c -0.471405,0 -1,-0.528596 -1,-1 z"
     id="lefttrigger"
     inkscape:connector-curvature="0"
     sodipodi:nodetypes="ssssssssss" />
  <g
     id="dpad">
    <path
       inkscape:connector-curvature="0"
       id="dp-base"
       d="M 80,96.5 C 80,96.2643 79.7357,96 79.5,96 H 69 c -0.47141,0 -1,-0.52859 -1,-1 V 84.5 C 68,84.2643 67.7357,84 67.5,84 h -11 C 56.2643,84 56,84.2643 56,84.5 V 95 c 0,0.47141 -0.5286,1 -1,1 H 44.5 C 44.2643,96 44,96.2643 44,96.5 v 11 c 0,0.2357 0.2643,0.5 0.5,0.5 H 55 c 0.4714,0 1,0.52859 1,1 v 10.5 c 0,0.24985 0.25015,0.5 0.5,0.5 h 11 c 0.24985,0 0.5,-0.25015 0.5,-0.5 V 109 c 0,-0.47141 0.52859,-1 1,-1 h 10.5 c 0.2357,0 0.5,-0.2643 0.5,-0.5 z m -1.29297,5.5 c 0,0.23985 -0.0829,0.48042 -0.24805,0.56445 l -6.64453,3.38282 c -0.36916,0.18791 -1.10742,-0.14428 -1.10742,-0.56446 v -6.76562 c 0,-0.42018 0.73826,-0.75041 1.10742,-0.5625 l 6.64453,3.38281 c 0.1651,0.084 0.24805,0.32265 0.24805,0.5625 z M 65.95312,92.47071 C 65.91952,92.8341 65.65302,93.25 65.33789,93.25 h -6.76367 c -0.42018,0 -0.75237,-0.73826 -0.56446,-1.10742 l 3.38282,-6.64453 c 0.16807,-0.33019 0.95888,-0.33019 1.12695,0 l 3.38281,6.64453 c 0.047,0.0923 0.062,0.207 0.0508,0.32813 z m 0,19.05859 c 0.0112,0.12113 -0.004,0.23583 -0.0508,0.32812 l -3.38281,6.64453 c -0.16808,0.33019 -0.95888,0.33019 -1.12695,0 l -3.38282,-6.64453 C 57.82183,111.48826 58.15402,110.75 58.5742,110.75 h 6.76367 c 0.31513,0 0.58159,0.4159 0.61523,0.7793 z M 53.20703,98.61719 v 6.76562 c 0,0.42018 -0.73826,0.75237 -1.10742,0.56446 l -6.64649,-3.38282 c -0.33019,-0.16807 -0.33019,-0.95888 0,-1.12695 l 6.64649,-3.38281 c 0.36916,-0.18791 1.10742,0.14232 1.10742,0.5625 z"
       style="display:inline;fill:#000000;fill-opacity:1;stroke:none;stroke-width:0.5;enable-background:new" />
    <path
       inkscape:connector-curvature="0"
       id="dpup"
       d="M 56.5,84 C 56.2643,84 56,84.2643 56,84.5 V 95 c 0,0.235705 -0.131191,0.486661 -0.322266,0.677734 L 62,102 68.322266,95.677734 C 68.131192,95.486661 68,95.235705 68,95 V 84.5 C 68,84.2643 67.7357,84 67.5,84 Z m 5.5,1.292969 c 0.239845,0 0.480418,0.0829 0.564453,0.248047 l 3.382813,6.644531 c 0.18791,0.36916 -0.144274,1.107422 -0.564454,1.107422 h -6.765624 c -0.420181,0 -0.750406,-0.738262 -0.5625,-1.107422 L 61.4375,85.541016 c 0.08404,-0.1651 0.32265,-0.248047 0.5625,-0.248047 z"
       style="display:inline;fill:#000000;fill-opacity:1;stroke:none;stroke-width:0.5;enable-background:new" />
    <path
       inkscape:connector-curvature="0"
       id="dpdown"
       d="m 62,102 -6.322266,6.32227 C 55.868809,108.51334 56,108.7643 56,109 v 10.5 c 0,0.2357 0.2643,0.5 0.5,0.5 h 11 c 0.2357,0 0.5,-0.2643 0.5,-0.5 V 109 c 0,-0.2357 0.131192,-0.48666 0.322266,-0.67773 z m -3.382812,8.79297 h 6.765624 c 0.420181,0 0.752364,0.73826 0.564454,1.10742 l -3.382813,6.64649 c -0.16807,0.33019 -0.958883,0.33019 -1.126953,0 l -3.382812,-6.64649 c -0.187906,-0.36916 0.142319,-1.10742 0.5625,-1.10742 z"
       style="display:inline;fill:#000000;fill-opacity:1;stroke:none;stroke-width:0.5;enable-background:new" />
    <path
       inkscape:connector-curvature="0"
       id="dpleft"
       d="M 55.677734,95.677734 C 55.486661,95.868808 55.235705,96 55,96 H 44.5 C 44.2643,96 44,96.2643 44,96.5 v 11 c 0,0.2357 0.2643,0.5 0.5,0.5 H 55 c 0.235705,0 0.486661,0.13119 0.677734,0.32227 L 62,102 Z m -3.207031,2.369141 c 0.36339,0.0336 0.779297,0.300104 0.779297,0.615234 v 6.763671 c 0,0.42018 -0.738262,0.75236 -1.107422,0.56445 l -6.644531,-3.38281 c -0.33019,-0.16807 -0.33019,-0.95888 0,-1.12695 l 6.644531,-3.382814 c 0.0923,-0.047 0.206995,-0.06198 0.328125,-0.05078 z"
       style="display:inline;fill:#000000;fill-opacity:1;stroke:none;stroke-width:0.5;enable-background:new" />
    <path
       inkscape:connector-curvature="0"
       id="dpright"
       d="M 68.322266,95.677734 62,102 l 6.322266,6.32227 C 68.513339,108.13119 68.764295,108 69,108 h 10.5 c 0.24985,0 0.5,-0.25015 0.5,-0.5 v -11 C 80,96.25015 79.74985,96 79.5,96 H 69 c -0.235705,0 -0.486661,-0.131192 -0.677734,-0.322266 z m 3.207031,2.369141 c 0.12113,-0.0112 0.235835,0.004 0.328125,0.05078 l 6.644531,3.382815 c 0.33019,0.16808 0.33019,0.95888 0,1.12695 l -6.644531,3.38281 C 71.488262,106.17814 70.75,105.84596 70.75,105.42578 v -6.763671 c 0,-0.31513 0.415897,-0.581594 0.779297,-0.615234 z"
       style="display:inline;fill:#000000;fill-opacity:1;stroke:none;stroke-width:0.5;enable-background:new" />
  </g>
  <path
     style="display:inline;opacity:0.25;fill:#000000;fill-opacity:1;fill-rule:evenodd;stroke:none;stroke-width:0.5;enable-background:new"
     d="m 30,48 c -8.836556,10e-7 -16,7.163444 -16,16 0,8.836556 7.163444,15.999999 16,16 8.836556,-10e-7 16,-7.163444 16,-16 0,-8.836556 -7.163444,-15.999999 -16,-16 z"
     id="leftstick-base"
     inkscape:connector-curvature="0"
     sodipodi:nodetypes="sssss" />
  <path
     inkscape:connector-curvature="0"
     id="rightstick-base"
     d="m 130,86 c -8.83656,10e-7 -16,7.163444 -16,16 0,8.83656 7.16344,16 16,16 8.83656,0 16,-7.16344 16,-16 0,-8.836556 -7.16344,-15.999999 -16,-16 z"
     style="display:inline;opacity:0.25;fill:#000000;fill-opacity:1;fill-rule:evenodd;stroke:none;stroke-width:0.5;enable-background:new"
     sodipodi:nodetypes="sssss" />
  <circle
     r="10"
     id="leftstick"
     style="display:inline;fill:#000000;fill-opacity:1;fill-rule:evenodd;stroke:none;stroke-width:0.499121;enable-background:new"
     cx="30"
     cy="64" />
  <circle
     r="10"
     cy="102"
     cx="130"
     style="display:inline;fill:#000000;fill-opacity:1;fill-rule:evenodd;stroke:none;stroke-width:0.499121;enable-background:new"
     id="rightstick" />
</svg>
