<svg xmlns="http://www.w3.org/2000/svg" xmlns:xlink="http://www.w3.org/1999/xlink" width="16" height="16" version="1.1" viewBox="0 0 16 16"><g id="surface105959"><path style="stroke:none;fill-rule:nonzero;fill:#000;fill-opacity:1" d="M 3 2.007812 C 2.46875 2.003906 1.960938 2.214844 1.589844 2.59375 C 1.214844 2.96875 1.007812 3.476562 1.011719 4.007812 L 1.015625 11.558594 C 1.03125 13.097656 3.175781 13.574219 3.863281 12.195312 L 4.949219 10.019531 L 11.128906 10.019531 L 12.214844 12.195312 C 12.902344 13.574219 14.980469 13.097656 15 11.558594 L 14.980469 4.007812 C 14.980469 2.898438 14.089844 2.007812 12.980469 2.007812 Z M 4 3.019531 L 6 3.019531 L 6 5.019531 L 8 5.019531 L 8 7.019531 L 6 7.019531 L 6 9.019531 L 4 9.019531 L 4 7.019531 L 2 7.019531 L 2 5.019531 L 4 5.019531 Z M 10.492188 3.546875 C 11.046875 3.546875 11.492188 3.996094 11.492188 4.546875 C 11.492188 5.101562 11.046875 5.546875 10.492188 5.546875 C 9.941406 5.546875 9.492188 5.101562 9.492188 4.546875 C 9.492188 3.996094 9.941406 3.546875 10.492188 3.546875 Z M 12.492188 6.546875 C 13.046875 6.546875 13.492188 6.996094 13.492188 7.546875 C 13.492188 8.101562 13.046875 8.546875 12.492188 8.546875 C 11.941406 8.546875 11.492188 8.101562 11.492188 7.546875 C 11.492188 6.996094 11.941406 6.546875 12.492188 6.546875 Z M 12.492188 6.546875"/></g></svg>