<svg xmlns="http://www.w3.org/2000/svg" width="64" height="64" version="1.1"><title>Gnome Symbolic Icon Theme</title><g><path fill="#bebebe" d="m32 16a16 16 0 0 0-16 16 16 16 0 0 0 16 16 16 16 0 0 0 16-16 16 16 0 0 0-16-16zm0 2.875a13 13 0 0 1 13 13 13 13 0 0 1-13 13 13 13 0 0 1-13-13 13 13 0 0 1 13-13z" transform="translate(-283,-601) translate(283,601)"/><g transform="translate(-283,-601) matrix(1 0 0 1 149.63 -134.9)"><title>go-home</title></g><path fill="#bebebe" d="m311 628v10h0.90625 0.0937c0.17491 1e-3 0.34778-0.0388 0.5-0.125l7-4c0.3107-0.17189 0.46875-0.52345 0.46875-0.875s-0.15805-0.70311-0.46875-0.875l-7-4c-0.15222-0.0862-0.32509-0.12631-0.5-0.125h-0.0937z" color="#000" transform="translate(-283,-601)" style="text-decoration-line:none;text-indent:0;text-transform:none"/></g></svg>