<svg width="64" height="64" version="1.1" xmlns="http://www.w3.org/2000/svg">
  <title>Gnome Symbolic Icon Theme</title>
  <g transform="translate(-283,-601)">
    <path transform="translate(283,601)" d="m32 16a16 16 0 0 0-16 16 16 16 0 0 0 16 16 16 16 0 0 0 16-16 16 16 0 0 0-16-16zm0 2.875a13 13 0 0 1 13 13 13 13 0 0 1-13 13 13 13 0 0 1-13-13 13 13 0 0 1 13-13z" fill="#bebebe"/>
    <g transform="matrix(1 0 0 1 149.63 -134.9)">
      <title>go-home</title>
      <g transform="matrix(.026036 0 0 .026036 345.97 902.08)" fill="#bebebe"></g>
    </g>
    <g fill="#bebebe">
      <g>
        <path d="m309.79 630a1.0001 1.0001 0 0 0-0.78125 1v7a1.0001 1.0001 0 0 0 1 1h10a1.0001 1.0001 0 0 0 1-1v-7a1.0001 1.0001 0 1 0-2 0v6h-8v-6a1.0001 1.0001 0 0 0-1.2188-1z" color="#000000" style="text-decoration-line:none;text-indent:0;text-transform:none"/>
        <path d="m314.91 626a1.0001 1.0001 0 0 0-0.5 0.1875l-7 5a1.0063 1.0063 0 1 0 1.1875 1.625l6.4062-4.5625 6.4062 4.5625a1.0063 1.0063 0 1 0 1.1875-1.625l-7-5a1.0001 1.0001 0 0 0-0.6875-0.1875z" color="#000000" style="text-decoration-line:none;text-indent:0;text-transform:none"/>
        <rect x="313.01" y="633" width="3" height="6" color="#bebebe"/>
      </g>
      <rect transform="scale(-1,1)" x="-323.01" y="632" width="1" height="1" rx="0" ry="1"/>
      <rect transform="scale(-1,1)" x="-308.01" y="632" width="1" height="1" rx="0" ry="1"/>
    </g>
  </g>
</svg>
