<svg width="64" height="64" version="1.1" xmlns="http://www.w3.org/2000/svg">
  <title>Gnome Symbolic Icon Theme</title>
  <g transform="translate(-283,-601)" fill="#bebebe">
    <path d="m289 638c-2.8284 0-6 3.1716-6 6v3c0 2.8284 3.1716 6 6 6h21v-15z"/>
    <path d="m310 618c0-2.8284-3.1716-6-6-6h-9c-2.8284 0-6.3124 3.1889-6 6v18h21zm-3 0v15h-15v-15c0.27735-1.3868 1.5858-3 3-3h9c1.4142 0 3 1.5858 3 3z"/>
    <path d="m341 638c2.8284 0 6 3.1716 6 6v3c0 2.8284-3.1716 6-6 6h-21v-15z"/>
    <path d="m320 618c0-2.8284 3.1716-6 6-6h9c2.8284 0 6.3124 3.1889 6 6v18h-21zm3 0v15h15v-15c-0.27735-1.3868-1.5858-3-3-3h-9c-1.4142 0-3 1.5858-3 3z"/>
  </g>
</svg>
